# xmcd
#
# Track frame offsets:
#	150
#	15912
#	29172
#	44692
#	59632
#	72317
#	85740
#	102430
#	116482
#	134950
#	147215
#	160900
#
# Disc length: 2331 seconds
#
# Revision: 1
# Processed by: cddbd v1.5.2PL0 Copyright (c) Steve Scherf et al.
# Submitted via: audiograbber 1.83.01
#
DISCID=b309190c
DTITLE=J. L. Caldwell - Refalling In Love
DYEAR=2000
DGENRE=Acoustic
TTITLE0=Lorelei
TTITLE1=A Woman Talk With Her Eyes
TTITLE2=Time Won´t Stop My Loving You
TTITLE3=Blame Me
TTITLE4=Too Good To Be True
TTITLE5=All Over Again
TTITLE6=Backstreets
TTITLE7=Between A Rock And A Heartache
TTITLE8=No One Knows About Real Love
TTITLE9=Is This What They Call Getting Old
TTITLE10=I´m Never Gonna Live Forever
TTITLE11=Refalling In Love Again
EXTD=
EXTT0=
EXTT1=
EXTT2=
EXTT3=
EXTT4=
EXTT5=
EXTT6=
EXTT7=
EXTT8=
EXTT9=
EXTT10=
EXTT11=
PLAYORDER=
